<?xml version="1.0" standalone="no"?>
<svg xmlns:xlink="http://www.w3.org/1999/xlink" fill="#000000" width="128" height="128" viewBox="0 0 32 32" xmlns="http://www.w3.org/2000/svg" data-iconid="sign-direction-go-move-navigation-next" data-svgname="Sign direction go move navigation next">

<title style="fill: rgb(255, 255, 255);"/>

<g data-name="Layer 45" id="Layer_45" style="fill: rgb(255, 255, 255);">

<path d="M29.57,15.18l-13-9A1,1,0,0,0,16,6H3a1,1,0,0,0-.75,1.66L9.66,16,2.25,24.34A1,1,0,0,0,3,26H16a1,1,0,0,0,.57-.18l13-9a1,1,0,0,0,0-1.64ZM15.69,24H5.23l6.52-7.34a1,1,0,0,0,0-1.32L5.23,8H15.69l11.55,8Z" style="fill: rgb(255, 255, 255);"/>

</g>

</svg>